<?xml version="1.0" encoding="utf-8"?>
<!-- Generator: Adobe Illustrator 21.0.0, SVG Export Plug-In . SVG Version: 6.00 Build 0)  -->
<svg version="1.1" xmlns="http://www.w3.org/2000/svg" xmlns:xlink="http://www.w3.org/1999/xlink" x="0px" y="0px"
	 viewBox="0 0 84 63" style="enable-background:new 0 0 84 63;" xml:space="preserve" height="18">
<style type="text/css">
	.st0{fill:#FF6600;}
	.st1{fill:none;}
	.st2{fill:#E40A22;}
	.st3{fill:#004879;}
	.st4{fill:#FFFFFF;}
	.st5{fill:#3B5E94;}
	.st6{clip-path:url(#SVGID_4_);}
	.st7{clip-path:url(#SVGID_6_);enable-background:new    ;}
	.st8{clip-path:url(#SVGID_8_);}
	.st9{clip-path:url(#SVGID_10_);}
	.st10{clip-path:url(#SVGID_12_);fill:#2003E9;}
	.st11{clip-path:url(#SVGID_14_);fill:none;stroke:#2003E9;stroke-width:2;stroke-miterlimit:10;}
	.st12{clip-path:url(#SVGID_16_);}
	.st13{clip-path:url(#SVGID_18_);enable-background:new    ;}
	.st14{clip-path:url(#SVGID_20_);}
	.st15{clip-path:url(#SVGID_22_);}
	.st16{clip-path:url(#SVGID_24_);fill:#E8A52D;}
	.st17{fill:#FF0015;}
	.st18{fill:#FF0006;}
	.st19{fill:#FDBF00;}
	.st20{fill:#DEDDDE;}
	.st21{fill:#00AB95;}
	.st22{fill:#00B63A;}
	.st23{fill:#FF0051;}
	.st24{fill:#008DCB;}
	.st25{fill:#005FA8;}
	.st26{fill:#FFCB00;}
	.st27{fill:#3551A9;}
	.st28{fill:#FFEC00;}
	.st29{fill:#F4DC1D;}
	.st30{fill:#2A3382;}
	.st31{fill:none;stroke:#3551A9;stroke-width:0.6;stroke-miterlimit:10;}
	.st32{clip-path:url(#SVGID_26_);}
	.st33{fill:#275BC4;}
	.st34{display:none;}
	.st35{display:inline;}
	.st36{display:inline;fill:#FFEC00;}
</style>
<g id="Layer_1">
	<g>
		<path class="st1" d="M43.4,32.3c-2,0-3.8,1.7-3.8,3.6v2.6c1.1,0.9,1.6,2.4,1.6,3.8v5.1h0.3c0.9,0,1.7,0.2,2.5,0.6v-1.7
			c0-0.4,0-0.7,0.1-1.1c0.1-0.6,0.4-1.2,0.7-1.8c0.4-0.6,0.8-1.1,1.4-1.4c0.2-0.2,0.5-0.3,0.8-0.4v0v0v-5.6
			C47.2,34,45.3,32.3,43.4,32.3z M40.7,36.2c0-0.7,0.6-1.3,1.3-1.3c0.7,0,1.3,0.6,1.3,1.3c0,0.7-0.6,1.3-1.3,1.3
			C41.3,37.5,40.7,36.9,40.7,36.2z M45.2,39.3c-0.5,0.3-1.1,0.5-1.7,0.5c-0.6,0-1.1-0.2-1.7-0.5c-0.2-0.2-0.3-0.5-0.2-0.7
			c0.2-0.2,0.5-0.3,0.7-0.2c0.7,0.4,1.6,0.4,2.2,0c0.2-0.2,0.6-0.1,0.7,0.2C45.5,38.9,45.4,39.2,45.2,39.3z M45,37.5
			c-0.7,0-1.3-0.6-1.3-1.3c0-0.7,0.6-1.3,1.3-1.3c0.7,0,1.3,0.6,1.3,1.3C46.3,36.9,45.7,37.5,45,37.5z"/>
		<path class="st1" d="M48.3,26.3l3.5-9.1c-1.7-0.4-5.3-1.2-9.8-1.2c-4.5,0-8.2,0.8-9.8,1.2l3.5,9.2c0.1,0.2,0.1,0.5,0,0.7
			L22.8,58.2c2,0.4,8.6,0.9,19.1,0.9c10.5,0,17-0.5,19-0.9L48.3,26.9C48.2,26.7,48.2,26.5,48.3,26.3z M34.7,18.2
			c0-0.4,3.2-0.9,7.2-0.9s7.2,0.5,7.2,0.9c0,0.4-3.2,0.9-7.2,0.9C37.9,19.1,34.7,18.6,34.7,18.2z M33.2,43.2c0-0.7,0.6-1.3,1.3-1.3
			c0.7,0,1.3,0.6,1.3,1.3s-0.6,1.3-1.3,1.3C33.8,44.5,33.2,43.9,33.2,43.2z M34.4,46.4c-0.2-0.2-0.3-0.5-0.2-0.7
			c0.2-0.2,0.5-0.3,0.7-0.2c0.7,0.4,1.6,0.4,2.2,0c0.2-0.2,0.6-0.1,0.7,0.2c0.2,0.2,0.1,0.6-0.2,0.7c-0.5,0.3-1.1,0.5-1.7,0.5
			C35.4,46.9,34.9,46.7,34.4,46.4z M36.2,43.2c0-0.7,0.6-1.3,1.3-1.3c0.7,0,1.3,0.6,1.3,1.3c0,0.7-0.6,1.3-1.3,1.3
			S36.2,43.9,36.2,43.2z M38.9,52.4c0-0.7,0.6-1.3,1.3-1.3c0.7,0,1.3,0.6,1.3,1.3c0,0.7-0.6,1.3-1.3,1.3
			C39.5,53.7,38.9,53.1,38.9,52.4z M43.3,55.4c-0.5,0.3-1.1,0.5-1.7,0.5c-0.6,0-1.1-0.2-1.7-0.5c-0.2-0.2-0.3-0.5-0.2-0.7
			c0.2-0.2,0.5-0.3,0.7-0.2c0.7,0.4,1.6,0.4,2.2,0c0.2-0.2,0.6-0.1,0.7,0.2C43.6,55,43.5,55.3,43.3,55.4z M43,53.7
			c-0.7,0-1.3-0.6-1.3-1.3s0.6-1.3,1.3-1.3c0.7,0,1.3,0.6,1.3,1.3C44.3,53.1,43.7,53.7,43,53.7z M51.2,50.4
			c-0.5,0.3-1.1,0.5-1.7,0.5c-0.6,0-1.1-0.2-1.7-0.5c-0.2-0.2-0.3-0.5-0.2-0.7c0.2-0.2,0.5-0.3,0.7-0.2c0.7,0.4,1.6,0.4,2.2,0
			c0.2-0.2,0.6-0.1,0.7,0.2C51.5,50,51.4,50.3,51.2,50.4z M46.7,47.2c0-0.7,0.6-1.3,1.3-1.3c0.7,0,1.3,0.6,1.3,1.3
			c0,0.7-0.6,1.3-1.3,1.3C47.3,48.5,46.7,47.9,46.7,47.2z M51,48.5c-0.7,0-1.3-0.6-1.3-1.3c0-0.7,0.6-1.3,1.3-1.3
			c0.7,0,1.3,0.6,1.3,1.3C52.3,47.9,51.7,48.5,51,48.5z M53.2,42.6c1,1,1.5,2.3,1.5,3.8V48l3.5,8.6c-0.7,0.3-4.8,0.4-5.2,0.5
			c0-0.2,0-10.9,0-10.9c-0.1-1.8-1.7-3.2-3.5-3.2c-1.8,0-3.4,1.4-3.5,3.3c0,0,0,2.4,0,3.6c0.5,0.8,0.9,1.8,0.9,2.9v4.7h-1.9v-4.7
			c0-1.8-1.5-3.3-3.3-3.3c-1.9,0-3.4,1.5-3.4,3.3v4.7h-1.8v-4.7c0-2.2,1.3-4,3-4.8v-5.5c0-1.9-1.5-3.5-3.4-3.5
			c-1.9,0-3.5,1.6-3.5,3.5v14.8c-0.8,0.1-6-0.2-6.9-0.5l5.2-12.9v-1.4c0-1.8,0.8-3.4,2.2-4.4l4.5-11.2l0.1-0.1
			c1.2,0.1,2.7,0.2,4.3,0.2c1.6,0,3.1-0.1,4.3-0.2l0.1,0.1l6,15C52.6,42,52.9,42.3,53.2,42.6z"/>
		<path class="st22" d="M49.1,18.2c0-0.4-3.2-0.9-7.2-0.9s-7.2,0.5-7.2,0.9c0,0.4,3.2,0.9,7.2,0.9C45.9,19.1,49.1,18.6,49.1,18.2z"
			/>
		<circle class="st22" cx="38.7" cy="4.8" r="4.1"/>
		<circle class="st22" cx="45.2" cy="10.6" r="3"/>
		<path class="st22" d="M63.1,58.2L50.2,26.6l3.7-9.7c0.1-0.2,0.1-0.5,0-0.7c-0.1-0.2-0.3-0.4-0.6-0.5c-0.2-0.1-4.9-1.5-11.4-1.5
			c-0.3,0-0.6,0-0.9,0c0.1-0.3,0.2-0.6,0.2-0.9c0-1.3-1.1-2.3-2.3-2.3c-1.3,0-2.3,1.1-2.3,2.3c0,0.4,0.1,0.8,0.3,1.2
			c-3.7,0.4-6.1,1.2-6.2,1.2c-0.2,0.1-0.4,0.2-0.6,0.5c-0.1,0.2-0.1,0.5,0,0.7l3.8,9.8l-13,31.6c-0.1,0.2-0.1,0.5-0.1,0.5
			c0,1.1,1.3,1.3,2.4,1.4c1.1,0.2,2.5,0.3,4.4,0.4c3.8,0.2,9,0.4,14.4,0.4s10.5-0.1,14.4-0.4c1.9-0.1,3.4-0.3,4.4-0.4
			c1.1-0.2,2.4-0.4,2.4-1.4C63.1,58.7,63.1,58.4,63.1,58.2z M41.9,59c-10.5,0-17-0.5-19.1-0.9L35.6,27c0.1-0.2,0.1-0.5,0-0.7
			l-3.5-9.2c1.7-0.4,5.3-1.2,9.8-1.2c4.5,0,8.2,0.7,9.8,1.2l-3.5,9.1c-0.1,0.2-0.1,0.5,0,0.7L61,58.2C59,58.6,52.4,59,41.9,59z"/>
		<path class="st22" d="M46.2,26.7c-1.2,0.1-2.7,0.2-4.3,0.2c-1.6,0-3.1-0.1-4.3-0.2l-0.1,0.1L33,37.9c-1.4,1-2.2,2.6-2.2,4.4v1.4
			l-5.2,12.9c0.9,0.3,6.1,0.6,6.9,0.5V42.3c0-1.9,1.5-3.5,3.5-3.5c1.9,0,3.4,1.6,3.4,3.5v5.5c-1.8,0.8-3,2.7-3,4.8v4.7h1.8v-4.7
			c0-1.8,1.5-3.3,3.4-3.3c1.8,0,3.3,1.5,3.3,3.3v4.7h1.9v-4.7c0-1.1-0.3-2-0.9-2.9c0-1.1,0-3.6,0-3.6c0.1-1.8,1.7-3.3,3.5-3.3
			c1.8,0,3.4,1.4,3.5,3.2c0,0,0,10.7,0,10.9c0.4,0,4.4-0.2,5.2-0.5L54.7,48v-1.7c0-1.4-0.5-2.8-1.5-3.8c-0.3-0.3-0.5-0.5-0.9-0.7
			l-6-15L46.2,26.7z M47.2,41.5L47.2,41.5L47.2,41.5c-0.3,0.2-0.6,0.3-0.8,0.5c-0.6,0.4-1,0.9-1.4,1.4c-0.4,0.5-0.6,1.1-0.7,1.8
			c-0.1,0.4-0.1,0.7-0.1,1.1V48c-0.8-0.4-1.6-0.6-2.5-0.6h-0.3v-5.1c0-1.4-0.5-2.8-1.6-3.8v-2.6c0-1.9,1.8-3.6,3.8-3.6
			c1.9,0,3.8,1.7,3.8,3.6V41.5z"/>
		<ellipse transform="matrix(1 -3.846947e-03 3.846947e-03 1 -0.1659 0.133)" class="st22" cx="34.5" cy="43.2" rx="1.3" ry="1.3"/>
		
			<ellipse transform="matrix(1 -3.846947e-03 3.846947e-03 1 -0.1658 0.1445)" class="st22" cx="37.5" cy="43.2" rx="1.3" ry="1.3"/>
		<ellipse transform="matrix(1 -3.847770e-03 3.847770e-03 1 -0.1389 0.1617)" class="st22" cx="42" cy="36.2" rx="1.3" ry="1.3"/>
		<ellipse transform="matrix(1 -3.847770e-03 3.847770e-03 1 -0.1389 0.1732)" class="st22" cx="45" cy="36.2" rx="1.3" ry="1.3"/>
		<ellipse transform="matrix(1 -3.846947e-03 3.846947e-03 1 -0.1812 0.185)" class="st22" cx="48" cy="47.2" rx="1.3" ry="1.3"/>
		<ellipse transform="matrix(1 -4.061531e-03 4.061531e-03 1 -0.1913 0.2075)" class="st22" cx="51" cy="47.2" rx="1.3" ry="1.3"/>
		
			<ellipse transform="matrix(1 -4.274379e-03 4.274379e-03 1 -0.2236 0.1722)" class="st22" cx="40.2" cy="52.4" rx="1.3" ry="1.3"/>
		<ellipse transform="matrix(1 -4.059796e-03 4.059796e-03 1 -0.2124 0.175)" class="st22" cx="43" cy="52.4" rx="1.3" ry="1.3"/>
		<path class="st22" d="M44.6,38.5c-0.7,0.4-1.6,0.4-2.2,0c-0.2-0.2-0.6-0.1-0.7,0.2c-0.2,0.2-0.1,0.6,0.2,0.7
			c0.5,0.3,1.1,0.5,1.7,0.5c0.6,0,1.2-0.2,1.7-0.5c0.2-0.2,0.3-0.5,0.2-0.7C45.2,38.4,44.8,38.3,44.6,38.5z"/>
		<path class="st22" d="M37.9,45.7c-0.2-0.2-0.5-0.3-0.7-0.2c-0.7,0.4-1.6,0.4-2.2,0c-0.2-0.2-0.6-0.1-0.7,0.2
			c-0.2,0.2-0.1,0.6,0.2,0.7c0.5,0.3,1.1,0.5,1.7,0.5c0.6,0,1.1-0.2,1.7-0.5C37.9,46.3,38,45.9,37.9,45.7z"/>
		<path class="st22" d="M42.7,54.6c-0.7,0.4-1.6,0.4-2.2,0c-0.2-0.2-0.6-0.1-0.7,0.2c-0.2,0.2-0.1,0.6,0.2,0.7
			c0.5,0.3,1.1,0.5,1.7,0.5c0.6,0,1.1-0.2,1.7-0.5c0.2-0.2,0.3-0.5,0.2-0.7C43.3,54.5,43,54.4,42.7,54.6z"/>
		<path class="st22" d="M50.6,49.6c-0.7,0.4-1.6,0.4-2.2,0c-0.2-0.2-0.6-0.1-0.7,0.2c-0.2,0.2-0.1,0.6,0.2,0.7
			c0.5,0.3,1.1,0.5,1.7,0.5c0.6,0,1.1-0.2,1.7-0.5c0.2-0.2,0.3-0.5,0.2-0.7C51.2,49.5,50.9,49.4,50.6,49.6z"/>
	</g>
	<g>
		<defs>
			<polyline id="SVGID_25_" points="-277,2385 747,2385 747,-2717 -277,-2717 			"/>
		</defs>
		<clipPath id="SVGID_2_">
			<use xlink:href="#SVGID_25_"  style="overflow:visible;"/>
		</clipPath>
	</g>
</g>
<g id="Layer_2" class="st34">
</g>
<g id="Layer_4" class="st34">
</g>
<g id="Layer_3" class="st34">
</g>
</svg>
